<svg xmlns="http://www.w3.org/2000/svg" xmlns:xlink="http://www.w3.org/1999/xlink" width="1367.333" height="861.802" viewBox="0 0 1367.333 861.802"><defs><linearGradient id="a" x1="1" y1="0.02" x2="0" y2="1" gradientUnits="objectBoundingBox"><stop offset="0" stop-color="#3b95cb"/><stop offset="1" stop-color="#00d4ff"/></linearGradient><linearGradient id="b" x1="0.5" y1="0" x2="0.5" xlink:href="#a"/></defs><g transform="translate(0 3.802)"><rect width="1366" height="767" fill="url(#a)"/><path d="M1367.333,12S1040-40,916,304,672,616,672,616L424,780h942.667Z" transform="translate(0 -13)" fill="url(#b)"/><path d="M1195.068,11.445s-267.558-41.7-368.914,234.14S626.712,495.762,626.712,495.762L424,627.266h770.523Z" transform="translate(627.266 -427.802) rotate(90)" fill="url(#b)"/><g transform="translate(-28 6)"><circle cx="63.5" cy="63.5" r="63.5" transform="translate(72 725)" fill="#fff"/><circle cx="63.5" cy="63.5" r="63.5" transform="translate(586 725)" fill="#fff"/><circle cx="63.5" cy="63.5" r="63.5" transform="translate(329 725)" fill="#fff"/><circle cx="63.5" cy="63.5" r="63.5" transform="translate(843 725)" fill="#fff"/><circle cx="63.5" cy="63.5" r="63.5" transform="translate(1097 725)" fill="#fff"/><circle cx="63.5" cy="63.5" r="63.5" transform="translate(199 725)" fill="#fff"/><circle cx="63.5" cy="63.5" r="63.5" transform="translate(713 725)" fill="#fff"/><circle cx="63.5" cy="63.5" r="63.5" transform="translate(456 725)" fill="#fff"/><circle cx="63.5" cy="63.5" r="63.5" transform="translate(970 725)" fill="#fff"/><circle cx="63.5" cy="63.5" r="63.5" transform="translate(1224 725)" fill="#fff"/></g></g></svg>