<svg xmlns="http://www.w3.org/2000/svg" xmlns:xlink="http://www.w3.org/1999/xlink" width="343.023" height="254.961" viewBox="0 0 343.023 254.961"><defs><linearGradient id="a" x1="0.5" x2="0.5" y2="1" gradientUnits="objectBoundingBox"><stop offset="0" stop-color="#3b95cb"/><stop offset="1" stop-color="#00d4ff"/></linearGradient><filter id="b" x="197.062" y="119.977" width="145.938" height="134.985" filterUnits="userSpaceOnUse"><feOffset dy="-1" input="SourceAlpha"/><feGaussianBlur result="c"/><feFlood flood-opacity="0.161"/><feComposite operator="in" in2="c"/><feComposite in="SourceGraphic"/></filter><filter id="d" x="209.039" y="0" width="133.985" height="146.938" filterUnits="userSpaceOnUse"><feOffset dy="-1" input="SourceAlpha"/><feGaussianBlur result="e"/><feFlood flood-opacity="0.161"/><feComposite operator="in" in2="e"/><feComposite in="SourceGraphic"/></filter></defs><g transform="translate(-1205 1371.961)"><rect width="342" height="252" rx="10" transform="translate(1205 -1370)" fill="url(#a)"/><path d="M1567.062-1249.727s-35.261-14.408-57.252,29.574-27.3,58.39-53.84,68.248-58.39,34.882-54.6,52.323c0-1.517,155.454,0,155.454,0s10.237,0,10.237-8.72C1566.683-1108.3,1567.062-1249.727,1567.062-1249.727Z" transform="translate(-19.062 -17.419)" fill="#fff" opacity="0.68"/><path d="M1567.062-1249.727s-35.261-14.408-57.252,29.574-27.3,58.39-53.84,68.248-58.39,34.882-54.6,52.323c0-1.517,155.454,0,155.454,0s10.237,0,10.237-8.72C1566.683-1108.3,1567.062-1249.727,1567.062-1249.727Z" transform="translate(2646.783 196.86) rotate(-90)" fill="#fff" opacity="0.68"/><g transform="matrix(1, 0, 0, 1, 1205, -1371.96)" filter="url(#b)"><path d="M1547-1250s-31-12.667-50.333,26-24,51.333-47.333,60-51.333,30.667-48,46c0-1.333,136.667,0,136.667,0s9,0,9-7.667C1546.667-1125.667,1547-1250,1547-1250Z" transform="translate(-1204 1372.96)" fill="#00d4ff" opacity="0.7"/></g><g transform="matrix(1, 0, 0, 1, 1205, -1371.96)" filter="url(#d)"><path d="M1547-1250s-31-12.667-50.333,26-24,51.333-47.333,60-51.333,30.667-48,46c0-1.333,136.667,0,136.667,0s9,0,9-7.667C1546.667-1125.667,1547-1250,1547-1250Z" transform="translate(1461.02 1548) rotate(-90)" fill="#00d4ff" opacity="0.7"/></g></g></svg>