<svg xmlns="http://www.w3.org/2000/svg" xmlns:xlink="http://www.w3.org/1999/xlink" width="343.02" height="254.961" viewBox="0 0 343.02 254.961"><defs><linearGradient id="a" x1="0.5" x2="0.5" y2="1" gradientUnits="objectBoundingBox"><stop offset="0" stop-color="#41e5e8"/><stop offset="1" stop-color="#1fe6bd"/></linearGradient><filter id="c" x="197.062" y="119.976" width="145.939" height="134.985" filterUnits="userSpaceOnUse"><feOffset dy="-1" input="SourceAlpha"/><feGaussianBlur result="d"/><feFlood flood-opacity="0.161"/><feComposite operator="in" in2="d"/><feComposite in="SourceGraphic"/></filter><filter id="f" x="209.035" y="0" width="133.985" height="146.939" filterUnits="userSpaceOnUse"><feOffset dy="-1" input="SourceAlpha"/><feGaussianBlur result="g"/><feFlood flood-opacity="0.161"/><feComposite operator="in" in2="g"/><feComposite in="SourceGraphic"/></filter></defs><g transform="translate(-1205 1371.961)"><rect width="342" height="252" rx="10" transform="translate(1205 -1370)" fill="url(#a)"/><path d="M1567.06-1249.73s-35.261-14.408-57.252,29.574-27.3,58.39-53.84,68.248-58.39,34.882-54.6,52.323c0-1.517,155.454,0,155.454,0s10.237,0,10.237-8.72C1566.68-1108.3,1567.06-1249.73,1567.06-1249.73Z" transform="translate(-19.062 -17.419)" fill="#fff" opacity="0.68"/><path d="M1567.06-1249.73s-35.261-14.408-57.252,29.574-27.3,58.39-53.84,68.248-58.39,34.882-54.6,52.323c0-1.517,155.454,0,155.454,0s10.237,0,10.237-8.72C1566.68-1108.3,1567.06-1249.73,1567.06-1249.73Z" transform="translate(2646.783 196.86) rotate(-90)" fill="#fff" opacity="0.68"/><g transform="matrix(1, 0, 0, 1, 1205, -1371.96)" filter="url(#c)"><path d="M1547-1250s-31-12.667-50.333,26-24,51.333-47.333,60-51.333,30.667-48,46c0-1.333,136.667,0,136.667,0s9,0,9-7.667C1546.67-1125.67,1547-1250,1547-1250Z" transform="translate(-1204 1372.96)" opacity="0.7" fill="url(#a)"/></g><g transform="matrix(1, 0, 0, 1, 1205, -1371.96)" filter="url(#f)"><path d="M1547-1250s-31-12.667-50.333,26-24,51.333-47.333,60-51.333,30.667-48,46c0-1.333,136.667,0,136.667,0s9,0,9-7.667C1546.67-1125.67,1547-1250,1547-1250Z" transform="translate(1461.02 1548) rotate(-90)" opacity="0.7" fill="url(#a)"/></g></g></svg>